<?xml version="1.0" encoding="UTF-8"?>
<svg id="Layer_1" xmlns="http://www.w3.org/2000/svg" version="1.1" viewBox="0 0 566.93 566.93">
  <!-- Generator: Adobe Illustrator 30.0.0, SVG Export Plug-In . SVG Version: 2.1.1 Build 123)  -->
  <path d="M1.7,566.5l49.52-146.34C-8.53,315.98.85,183.71,81.36,93.15,223.08-66.29,487.82-11.52,551.65,191.74c75.5,240.44-178.69,444.45-397.99,326.73L1.7,566.5ZM74.54,496.44l87.23-28.31c167.6,109.06,386.06-31.58,353.4-230.28C487.8,71.39,292.28-9.32,154.6,89.44c-104.13,74.7-125.41,217.71-52.72,322.46l-27.34,84.53Z"/>
  <path d="M193.77,140.86c3.38-.26,16.66.64,20.13,1.18,5.85.91,8.22,5.28,10.63,9.98,6.28,12.21,17.7,43.51,21.33,57,5.57,20.67-25.67,32.35-24.33,44.8.46,4.27,14.14,24.55,17.56,29.28,15.98,22.11,37.28,41.02,61.21,54.2,4.4,2.43,18.56,10.14,22.56,10.5,3.14.28,4.23-.87,6.52-2.5,10.07-7.17,18.88-22.34,28.09-30.98,3.43-3.41,7.99-2.14,12.07-.91,18.21,5.49,40.18,23.59,58.58,30.72,8.12,6.45.91,31.87-3.59,40-9.69,17.51-38.81,29.11-57.99,29.95-34.79,1.51-96.78-31.45-123.69-53.69-40.56-33.52-101.93-112.44-90.79-167.66,3.54-17.54,22-50.37,41.69-51.86Z"/>
</svg>
